<svg 
 xmlns="http://www.w3.org/2000/svg"
 xmlns:xlink="http://www.w3.org/1999/xlink"
 width="786px" height="588px">
<path fill-rule="evenodd"  fill="rgb(255, 255, 255)"
 d="M45.0,550.999 C131.857,421.455 237.341,370.281 0.0,303.999 C189.511,238.219 129.908,205.240 36.999,40.999 C270.946,192.302 261.745,111.412 275.999,3.0 C399.23,178.179 425.934,102.350 510.0,0.0 C527.210,147.622 576.525,134.159 725.0,53.999 C613.274,185.81 662.95,215.396 785.999,241.0 C586.153,370.145 631.964,376.394 749.0,577.0 C520.674,425.257 556.804,444.638 498.0,584.999 C388.962,475.537 400.928,470.729 302.0,587.999 C303.349,417.270 309.753,438.688 45.0,550.999 Z"/>
</svg>