<svg 
 xmlns="http://www.w3.org/2000/svg"
 xmlns:xlink="http://www.w3.org/1999/xlink"
 width="786px" height="588px">
<path fill-rule="evenodd"  fill="rgb(255, 255, 255)"
 d="M45.0,550.999 C92.734,476.518 154.908,355.455 0.0,303.999 C155.36,247.401 116.165,179.43 36.999,40.999 C239.901,174.726 261.745,111.412 275.999,3.0 C399.23,178.179 425.934,102.350 510.0,0.0 C527.210,143.778 615.515,112.796 725.0,53.999 C655.235,141.627 677.578,220.521 785.999,241.0 C643.135,345.569 649.703,404.269 749.0,577.0 C570.532,458.878 549.454,465.851 498.0,584.999 C397.915,488.481 400.928,470.729 302.0,587.999 C271.464,461.41 248.609,465.594 45.0,550.999 Z"/>
</svg>